<?xml version="1.0" encoding="utf-8"?>
<!-- Generator: Adobe Illustrator 16.0.0, SVG Export Plug-In . SVG Version: 6.00 Build 0)  -->
<!DOCTYPE svg PUBLIC "-//W3C//DTD SVG 1.1//EN" "http://www.w3.org/Graphics/SVG/1.1/DTD/svg11.dtd">
<svg version="1.1" id="Layer_1" xmlns="http://www.w3.org/2000/svg" xmlns:xlink="http://www.w3.org/1999/xlink" x="0px" y="0px"
	 width="48px" height="48px" viewBox="0 0 48 48" enable-background="new 0 0 48 48" xml:space="preserve">
<g>
	<path fill="#EB6945" d="M23.556,2.431c-12.392,0-22.473,10.081-22.473,22.47c0,7.09,3.417,13.851,9.129,18.073l0.64,0.478
		l0.573-0.562c2.465-2.426,7.113-3.938,12.131-3.938c5.018,0,9.666,1.512,12.138,3.938l0.566,0.562l0.641-0.478
		c5.718-4.223,9.126-10.983,9.126-18.073C46.026,12.512,35.946,2.431,23.556,2.431z"/>
	<path fill="#F2F2F2" d="M23.556,4.63c-11.117,0-20.131,9.014-20.131,20.134c0,6.638,3.218,12.527,8.171,16.194
		c2.392-2.347,6.849-3.925,11.959-3.925c5.111,0,9.57,1.578,11.958,3.925c4.96-3.667,8.177-9.557,8.177-16.194
		C43.69,13.644,34.677,4.63,23.556,4.63z M40.157,22.994c0.006,0.084-0.055,0.16-0.145,0.166l-1.872,0.163c-0.005,0-0.005,0-0.011,0
		c-0.084,0-0.15-0.062-0.156-0.141c-0.005-0.084,0.056-0.163,0.146-0.168l1.87-0.166C40.073,22.84,40.152,22.904,40.157,22.994z
		 M39.978,21.444c0.017,0.026,0.035,0.054,0.035,0.087c0.022,0.118-0.057,0.233-0.175,0.253l-3.712,0.654
		c-0.011,0-0.021,0.003-0.035,0.003c-0.105,0-0.201-0.076-0.218-0.179c-0.022-0.121,0.063-0.233,0.18-0.253l3.707-0.654
		c0.038-0.006,0.078,0,0.111,0.014C39.917,21.377,39.956,21.405,39.978,21.444z M39.702,20.01c0.024,0.081-0.027,0.163-0.106,0.188
		l-1.818,0.486c-0.018,0.005-0.029,0.005-0.04,0.005c-0.068,0-0.129-0.048-0.145-0.115c-0.03-0.082,0.021-0.166,0.106-0.191
		l1.813-0.486C39.596,19.875,39.681,19.925,39.702,20.01z M39.282,18.555c0.033,0.079-0.011,0.171-0.09,0.203l-1.769,0.64
		c-0.024,0.009-0.041,0.009-0.052,0.009c-0.067,0-0.123-0.04-0.145-0.101c-0.029-0.079,0.011-0.166,0.09-0.197l1.769-0.646
		C39.17,18.434,39.253,18.473,39.282,18.555z M38.737,17.148c0.039,0.076,0,0.168-0.073,0.202l-1.707,0.794
		c-0.017,0.012-0.046,0.02-0.062,0.02c-0.058,0-0.112-0.037-0.14-0.093c-0.035-0.079-0.008-0.166,0.071-0.205l1.708-0.794
		C38.614,17.036,38.704,17.067,38.737,17.148z M37.806,15.727c0.101-0.062,0.234-0.028,0.297,0.073
		c0.067,0.107,0.027,0.242-0.079,0.303l-3.263,1.881c-0.033,0.02-0.073,0.028-0.106,0.028c-0.079,0-0.152-0.04-0.19-0.107
		c-0.063-0.104-0.027-0.242,0.079-0.3L37.806,15.727z M37.293,14.495c0.046,0.07,0.035,0.168-0.033,0.216l-1.545,1.079
		c-0.027,0.02-0.055,0.031-0.09,0.031c-0.05,0-0.095-0.025-0.123-0.07c-0.051-0.064-0.032-0.163,0.033-0.213l1.545-1.078
		C37.153,14.41,37.249,14.43,37.293,14.495z M36.407,13.276c0.049,0.064,0.038,0.163-0.017,0.219l-1.45,1.207
		c-0.027,0.025-0.063,0.037-0.101,0.037c-0.046,0-0.084-0.02-0.117-0.056c-0.052-0.064-0.046-0.166,0.017-0.219l1.442-1.208
		C36.255,13.2,36.35,13.208,36.407,13.276z M35.412,12.138c0.063,0.06,0.063,0.158,0,0.22l-1.336,1.331
		c-0.029,0.025-0.067,0.045-0.106,0.045c-0.04,0-0.078-0.02-0.108-0.045c-0.061-0.062-0.061-0.157,0-0.219l1.333-1.332
		C35.249,12.08,35.35,12.08,35.412,12.138z M34.352,11.077c0.09,0.076,0.102,0.214,0.027,0.307l-2.422,2.886
		c-0.048,0.051-0.106,0.079-0.171,0.079c-0.048,0-0.099-0.019-0.141-0.053c-0.087-0.076-0.102-0.216-0.026-0.306l2.423-2.886
		C34.12,11.01,34.256,10.996,34.352,11.077z M33.145,10.139c0.071,0.05,0.084,0.146,0.038,0.216l-1.082,1.542
		c-0.031,0.045-0.074,0.07-0.123,0.07c-0.031,0-0.059-0.014-0.09-0.031c-0.07-0.048-0.09-0.143-0.041-0.213l1.083-1.544
		C32.976,10.108,33.076,10.089,33.145,10.139z M30.74,10.984l0.939-1.629c0.043-0.076,0.138-0.098,0.213-0.056
		c0.073,0.042,0.096,0.138,0.056,0.21l-0.939,1.631c-0.031,0.05-0.085,0.079-0.138,0.079c-0.028,0-0.054-0.011-0.075-0.022
		C30.722,11.153,30.7,11.061,30.74,10.984z M29.568,10.35l0.79-1.704c0.041-0.079,0.133-0.112,0.21-0.076
		c0.077,0.037,0.107,0.126,0.075,0.205l-0.799,1.71c-0.023,0.053-0.08,0.081-0.14,0.081c-0.021,0-0.045-0.003-0.062-0.011
		C29.563,10.518,29.527,10.428,29.568,10.35z M29.205,7.915c0.115,0.04,0.172,0.168,0.132,0.281l-1.288,3.541
		c-0.031,0.084-0.116,0.141-0.208,0.141c-0.023,0-0.051-0.003-0.077-0.012c-0.107-0.044-0.167-0.166-0.128-0.281l1.292-3.541
		C28.964,7.932,29.091,7.876,29.205,7.915z M27.08,9.395l0.487-1.82c0.024-0.081,0.106-0.126,0.189-0.109
		c0.079,0.022,0.128,0.109,0.108,0.19l-0.488,1.823c-0.021,0.067-0.081,0.112-0.145,0.112c-0.015,0-0.029,0-0.043-0.005
		C27.111,9.566,27.06,9.479,27.08,9.395z M26.11,7.233c0.016-0.087,0.098-0.143,0.177-0.126c0.088,0.014,0.145,0.095,0.127,0.18
		l-0.329,1.856c-0.011,0.07-0.075,0.123-0.148,0.123c-0.008,0-0.02,0-0.024-0.002c-0.085-0.014-0.145-0.093-0.127-0.174L26.11,7.233
		z M24.631,7.014c0.006-0.087,0.082-0.148,0.163-0.14c0.087,0.005,0.152,0.082,0.146,0.166l-0.166,1.876
		c-0.009,0.082-0.079,0.143-0.154,0.143c-0.006,0-0.008,0-0.015,0c-0.084-0.008-0.148-0.087-0.14-0.168L24.631,7.014z M23.07,6.927
		c0-0.121,0.101-0.222,0.222-0.222c0.115,0,0.213,0.101,0.213,0.222v3.766c0,0.121-0.099,0.219-0.213,0.219
		c-0.121,0-0.222-0.098-0.222-0.219V6.927z M21.784,6.874c0.079-0.008,0.16,0.053,0.166,0.14l0.163,1.876
		c0.005,0.082-0.056,0.16-0.138,0.168c-0.009,0-0.011,0-0.017,0c-0.079,0-0.146-0.062-0.155-0.143L21.64,7.039
		C21.632,6.955,21.694,6.879,21.784,6.874z M20.287,7.106c0.084-0.017,0.166,0.04,0.18,0.126l0.329,1.856
		c0.014,0.081-0.042,0.16-0.124,0.174c-0.009,0.002-0.017,0.002-0.025,0.002c-0.079,0-0.144-0.053-0.154-0.123l-0.326-1.856
		C20.146,7.202,20.206,7.121,20.287,7.106z M18.821,7.466c0.084-0.017,0.166,0.028,0.188,0.109l0.489,1.82
		c0.022,0.084-0.025,0.171-0.107,0.191c-0.014,0.005-0.025,0.005-0.042,0.005c-0.067,0-0.129-0.045-0.151-0.112l-0.486-1.823
		C18.689,7.575,18.74,7.489,18.821,7.466z M17.372,7.915c0.115-0.039,0.242,0.017,0.284,0.129l1.289,3.541
		c0.034,0.115-0.02,0.236-0.135,0.281c-0.02,0.009-0.051,0.012-0.073,0.012c-0.09,0-0.174-0.056-0.205-0.141l-1.289-3.541
		C17.201,8.083,17.257,7.955,17.372,7.915z M16.011,8.569c0.076-0.036,0.171-0.003,0.208,0.076l0.789,1.704
		c0.039,0.079,0.008,0.168-0.07,0.205c-0.022,0.008-0.045,0.011-0.068,0.011c-0.056,0-0.109-0.028-0.137-0.081l-0.798-1.71
		C15.904,8.696,15.932,8.606,16.011,8.569z M14.685,9.3c0.076-0.042,0.171-0.02,0.213,0.056l0.943,1.629
		c0.042,0.076,0.017,0.168-0.053,0.213c-0.031,0.011-0.056,0.022-0.081,0.022c-0.054,0-0.107-0.028-0.132-0.079L14.632,9.51
		C14.589,9.438,14.615,9.342,14.685,9.3z M13.43,10.139c0.073-0.05,0.171-0.031,0.216,0.04l1.081,1.544
		c0.051,0.07,0.031,0.166-0.036,0.213c-0.025,0.017-0.059,0.031-0.09,0.031c-0.048,0-0.093-0.025-0.124-0.07l-1.084-1.542
		C13.346,10.285,13.362,10.189,13.43,10.139z M12.228,11.077c0.096-0.081,0.228-0.067,0.309,0.026l2.42,2.886
		c0.082,0.09,0.067,0.23-0.025,0.306c-0.042,0.034-0.093,0.053-0.141,0.053c-0.064,0-0.126-0.028-0.168-0.079L12.2,11.383
		C12.124,11.291,12.132,11.153,12.228,11.077z M11.164,12.138c0.064-0.059,0.163-0.059,0.222,0l1.334,1.332
		c0.059,0.062,0.059,0.157,0,0.219c-0.031,0.025-0.07,0.045-0.113,0.045c-0.037,0-0.076-0.02-0.109-0.045l-1.333-1.331
		C11.11,12.296,11.11,12.198,11.164,12.138z M10.172,13.276c0.059-0.068,0.152-0.076,0.219-0.02l1.446,1.208
		c0.064,0.054,0.073,0.155,0.017,0.219c-0.031,0.036-0.079,0.056-0.121,0.056c-0.034,0-0.07-0.011-0.098-0.037l-1.44-1.207
		C10.127,13.438,10.12,13.34,10.172,13.276z M9.285,14.495c0.051-0.065,0.141-0.084,0.216-0.037l1.542,1.078
		c0.07,0.051,0.082,0.149,0.037,0.213c-0.028,0.045-0.079,0.07-0.126,0.07c-0.029,0-0.062-0.011-0.09-0.031L9.319,14.71
		C9.254,14.663,9.235,14.565,9.285,14.495z M8.477,15.8c0.059-0.101,0.191-0.135,0.295-0.073l3.263,1.879
		c0.104,0.059,0.141,0.196,0.082,0.3c-0.042,0.067-0.115,0.107-0.191,0.107c-0.034,0-0.073-0.009-0.109-0.028l-3.263-1.881
		C8.451,16.042,8.417,15.907,8.477,15.8z M7.839,17.148c0.034-0.081,0.127-0.112,0.205-0.076l1.71,0.794
		c0.073,0.04,0.106,0.126,0.07,0.205c-0.025,0.056-0.082,0.093-0.14,0.093c-0.02,0-0.045-0.008-0.067-0.02L7.912,17.35
		C7.836,17.316,7.8,17.224,7.839,17.148z M7.294,18.555c0.025-0.082,0.118-0.121,0.199-0.092l1.767,0.646
		c0.081,0.031,0.124,0.118,0.093,0.197c-0.02,0.062-0.079,0.101-0.146,0.101c-0.017,0-0.034,0-0.053-0.009l-1.769-0.64
		C7.306,18.726,7.264,18.633,7.294,18.555z M6.876,20.01c0.017-0.084,0.106-0.135,0.188-0.113l1.817,0.486
		c0.084,0.025,0.132,0.109,0.109,0.191c-0.017,0.067-0.078,0.115-0.146,0.115c-0.015,0-0.029,0-0.04-0.005l-1.819-0.486
		C6.898,20.172,6.851,20.091,6.876,20.01z M6.71,21.368c0.031-0.014,0.064-0.02,0.106-0.014l3.709,0.654
		c0.118,0.02,0.2,0.132,0.174,0.253c-0.017,0.104-0.11,0.179-0.213,0.179c-0.011,0-0.022-0.003-0.037-0.003l-3.709-0.654
		c-0.118-0.02-0.2-0.135-0.177-0.253c0.006-0.034,0.02-0.062,0.037-0.087C6.623,21.405,6.663,21.377,6.71,21.368z M6.586,22.848
		l1.879,0.166c0.084,0.006,0.146,0.084,0.137,0.168c-0.005,0.079-0.076,0.141-0.151,0.141c-0.002,0-0.008,0-0.011,0L6.562,23.16
		c-0.084-0.005-0.149-0.081-0.141-0.166C6.43,22.904,6.502,22.84,6.586,22.848z M6.393,24.502c0-0.081,0.067-0.154,0.154-0.154
		h1.884c0.081,0,0.151,0.073,0.151,0.154c0,0.087-0.07,0.155-0.151,0.155H6.547C6.46,24.657,6.393,24.589,6.393,24.502z
		 M6.646,26.149c-0.076,0-0.144-0.059-0.152-0.142c-0.008-0.082,0.056-0.161,0.14-0.166l1.873-0.162
		c0.084-0.01,0.16,0.055,0.168,0.139c0.011,0.083-0.056,0.161-0.141,0.166l-1.873,0.165C6.66,26.149,6.654,26.149,6.646,26.149z
		 M6.943,27.745c-0.107,0-0.197-0.072-0.213-0.18c-0.006-0.021,0-0.039,0-0.056v-0.006c-0.014-0.084,0.037-0.166,0.121-0.18
		l0.045-0.008c0.002,0,0.002,0,0.008-0.003l3.709-0.655c0.118-0.022,0.233,0.06,0.253,0.18c0.022,0.116-0.059,0.231-0.18,0.251
		l-3.707,0.656C6.966,27.745,6.955,27.745,6.943,27.745z M7.241,29.085c-0.073,0-0.132-0.048-0.149-0.115
		c-0.025-0.084,0.025-0.166,0.107-0.191l1.819-0.485c0.082-0.02,0.168,0.027,0.185,0.106c0.025,0.085-0.022,0.169-0.106,0.191
		l-1.82,0.488C7.267,29.082,7.252,29.085,7.241,29.085z M7.724,30.503c-0.067,0-0.123-0.039-0.143-0.104
		c-0.031-0.08,0.012-0.17,0.09-0.199l1.769-0.643c0.082-0.031,0.169,0.014,0.197,0.096c0.031,0.076-0.011,0.166-0.09,0.193
		l-1.769,0.646C7.758,30.5,7.741,30.503,7.724,30.503z M8.331,31.87c-0.059,0-0.112-0.031-0.141-0.087
		c-0.036-0.079-0.003-0.174,0.076-0.207l1.704-0.799c0.079-0.035,0.172,0,0.208,0.076c0.034,0.079,0.005,0.169-0.076,0.206
		l-1.705,0.797C8.375,31.868,8.353,31.87,8.331,31.87z M9.243,33.261c-0.037,0.021-0.07,0.031-0.107,0.031
		c-0.076,0-0.151-0.04-0.193-0.11c-0.014-0.027-0.022-0.056-0.022-0.087c-0.04-0.07-0.012-0.163,0.053-0.205l1.637-0.938
		c0.02-0.018,0.04-0.021,0.064-0.023L12.287,31c0.104-0.059,0.236-0.025,0.297,0.079c0.065,0.104,0.025,0.238-0.082,0.3
		L9.243,33.261z M9.886,34.423c-0.047,0-0.093-0.02-0.124-0.064c-0.048-0.073-0.031-0.166,0.037-0.216l1.541-1.076
		c0.076-0.05,0.169-0.036,0.217,0.037c0.048,0.069,0.031,0.16-0.034,0.21l-1.544,1.081C9.951,34.415,9.92,34.423,9.886,34.423z
		 M10.928,35.552c-0.031,0.028-0.065,0.036-0.099,0.036c-0.048,0-0.09-0.019-0.118-0.053c-0.053-0.067-0.045-0.163,0.017-0.217
		l1.443-1.213c0.064-0.053,0.163-0.048,0.219,0.018c0.053,0.069,0.045,0.162-0.017,0.218L10.928,35.552z M11.866,36.668
		c-0.04,0-0.076-0.011-0.109-0.045c-0.059-0.056-0.059-0.157,0-0.22l1.331-1.332c0.062-0.059,0.163-0.059,0.219,0
		c0.059,0.062,0.059,0.16,0,0.223l-1.328,1.329C11.947,36.657,11.908,36.668,11.866,36.668z M15.679,34.788l-2.423,2.886
		c-0.042,0.05-0.104,0.078-0.168,0.078c-0.048,0-0.099-0.017-0.14-0.051c-0.087-0.078-0.099-0.219-0.026-0.309l2.423-2.885
		c0.079-0.093,0.213-0.104,0.306-0.029C15.747,34.555,15.758,34.695,15.679,34.788z M28.773,31.626
		c-0.178,0.109-0.354,0.226-0.534,0.334c-0.18,0.112-0.374,0.196-0.565,0.298L27.383,32.4L27.08,32.52
		c-0.208,0.076-0.409,0.163-0.621,0.228c-0.211,0.053-0.424,0.108-0.64,0.165l-0.164,0.039l-0.159,0.028l-0.328,0.054
		c-0.22,0.036-0.441,0.073-0.666,0.079l-0.693,0.036l-0.635-0.036c-0.109-0.009-0.211-0.006-0.323-0.026l-0.343-0.05l-0.334-0.057
		l-0.168-0.028l-0.163-0.039c-0.213-0.057-0.427-0.112-0.643-0.165c-0.211-0.064-0.413-0.151-0.615-0.226L20.284,32.4l-0.295-0.143
		c-0.185-0.099-0.387-0.186-0.567-0.295c-0.18-0.111-0.357-0.228-0.534-0.337c-0.683-0.478-1.297-1.011-1.772-1.604
		c-0.261-0.283-0.452-0.598-0.663-0.887c-0.104-0.146-0.174-0.307-0.264-0.45c-0.079-0.154-0.166-0.297-0.238-0.445
		c-0.065-0.152-0.129-0.299-0.191-0.444s-0.132-0.278-0.168-0.427c-0.087-0.283-0.18-0.551-0.239-0.809
		c-0.056-0.264-0.101-0.508-0.143-0.729c-0.028-0.226-0.042-0.438-0.062-0.623c-0.008-0.094-0.016-0.184-0.025-0.27
		c0-0.079,0.003-0.161,0.003-0.233c0.006-0.146,0.008-0.267,0.008-0.371c0.011-0.202,0.014-0.306,0.014-0.306
		s0.015,0.104,0.04,0.303c0.014,0.101,0.028,0.219,0.045,0.365c0.012,0.073,0.02,0.151,0.031,0.227
		c0.017,0.084,0.037,0.168,0.059,0.261c0.042,0.177,0.082,0.379,0.135,0.596c0.064,0.21,0.138,0.435,0.213,0.682
		c0.084,0.238,0.205,0.486,0.311,0.747c0.113,0.261,0.273,0.52,0.413,0.795c0.076,0.132,0.174,0.261,0.262,0.393
		c0.095,0.135,0.168,0.278,0.281,0.407c0.216,0.25,0.407,0.54,0.667,0.781c0.472,0.524,1.07,0.978,1.702,1.398
		c0.649,0.413,1.381,0.707,2.137,0.948c0.194,0.051,0.388,0.099,0.584,0.149l0.146,0.036l0.146,0.021l0.289,0.045
		c0.373,0.08,0.826,0.066,1.244,0.095l0.586-0.028c0.203,0,0.401-0.033,0.604-0.063l0.294-0.045l0.152-0.023l0.146-0.036
		c0.193-0.047,0.387-0.099,0.58-0.149c0.759-0.238,1.494-0.533,2.139-0.948c0.637-0.419,1.232-0.871,1.706-1.396
		c0.259-0.244,0.453-0.528,0.666-0.781c0.108-0.132,0.188-0.275,0.286-0.41c0.085-0.132,0.177-0.261,0.254-0.393
		c0.145-0.275,0.299-0.534,0.412-0.795c0.108-0.261,0.229-0.509,0.314-0.747c0.073-0.247,0.145-0.472,0.213-0.682
		c0.055-0.214,0.095-0.417,0.139-0.593c0.017-0.093,0.033-0.177,0.058-0.261c0.011-0.077,0.017-0.155,0.027-0.228
		c0.017-0.146,0.038-0.267,0.044-0.368c0.023-0.2,0.04-0.303,0.04-0.303s0.006,0.104,0.006,0.306
		c0.006,0.104,0.011,0.222,0.011,0.371c0,0.07,0.006,0.152,0.006,0.229c-0.006,0.084-0.017,0.174-0.022,0.267
		c-0.017,0.191-0.034,0.402-0.057,0.63c-0.044,0.222-0.096,0.466-0.145,0.729c-0.058,0.256-0.158,0.522-0.244,0.809
		c-0.033,0.148-0.108,0.281-0.169,0.427s-0.123,0.292-0.191,0.444c-0.069,0.148-0.155,0.291-0.238,0.44
		c-0.086,0.148-0.159,0.309-0.264,0.455c-0.208,0.289-0.404,0.604-0.659,0.887C30.07,30.615,29.456,31.148,28.773,31.626z
		 M33.627,37.701c-0.04,0.034-0.09,0.051-0.142,0.051c-0.061,0-0.117-0.028-0.161-0.078l-2.428-2.886
		c-0.077-0.093-0.063-0.233,0.027-0.31c0.098-0.075,0.233-0.063,0.309,0.029l2.422,2.885C33.733,37.482,33.723,37.623,33.627,37.701
		z M34.817,36.623c-0.029,0.034-0.067,0.045-0.106,0.045c-0.04,0-0.078-0.011-0.107-0.045l-1.331-1.329
		c-0.063-0.063-0.063-0.161,0-0.223c0.058-0.059,0.158-0.059,0.213,0l1.332,1.332C34.878,36.466,34.878,36.567,34.817,36.623z
		 M35.867,35.535c-0.027,0.034-0.073,0.053-0.123,0.053c-0.029,0-0.067-0.008-0.095-0.036l-1.444-1.211
		c-0.063-0.056-0.073-0.148-0.017-0.218c0.055-0.065,0.152-0.07,0.219-0.018l1.443,1.213C35.911,35.372,35.925,35.468,35.867,35.535
		z M36.816,34.358c-0.027,0.045-0.079,0.064-0.123,0.064c-0.033,0-0.068-0.008-0.09-0.028l-1.545-1.081
		c-0.066-0.05-0.085-0.141-0.039-0.21c0.05-0.073,0.146-0.087,0.219-0.037l1.545,1.076C36.851,34.192,36.862,34.285,36.816,34.358z
		 M37.637,33.182c-0.044,0.07-0.118,0.11-0.191,0.11c-0.038,0-0.079-0.01-0.111-0.031l-3.263-1.882
		c-0.102-0.062-0.142-0.196-0.079-0.3c0.061-0.104,0.196-0.138,0.297-0.079l1.617,0.929c0.023,0.003,0.046,0.006,0.067,0.023
		l1.63,0.938c0.071,0.042,0.096,0.135,0.055,0.205C37.658,33.126,37.647,33.154,37.637,33.182z M38.389,31.783
		c-0.027,0.056-0.084,0.087-0.14,0.087c-0.023,0-0.046-0.002-0.067-0.014l-1.707-0.797c-0.073-0.037-0.108-0.127-0.073-0.206
		c0.033-0.076,0.129-0.111,0.202-0.076l1.706,0.799C38.389,31.609,38.424,31.704,38.389,31.783z M39.002,30.398
		c-0.022,0.065-0.085,0.104-0.147,0.104c-0.021,0-0.038-0.003-0.055-0.012l-1.769-0.646c-0.079-0.027-0.12-0.117-0.091-0.193
		c0.028-0.082,0.118-0.127,0.197-0.096l1.769,0.643C38.99,30.229,39.029,30.318,39.002,30.398z M39.484,28.97
		c-0.011,0.067-0.073,0.115-0.142,0.115c-0.017,0-0.027-0.003-0.044-0.006l-1.82-0.488c-0.079-0.022-0.128-0.106-0.106-0.191
		c0.017-0.079,0.106-0.126,0.186-0.106l1.82,0.485C39.462,28.804,39.512,28.886,39.484,28.97z M39.85,27.565
		c-0.017,0.107-0.106,0.18-0.213,0.18c-0.013,0-0.029,0-0.041,0l-3.706-0.656c-0.117-0.02-0.202-0.135-0.18-0.251
		c0.023-0.12,0.136-0.202,0.253-0.18l3.712,0.655c0,0.003,0.006,0.003,0.006,0.003l0.046,0.008c0.082,0.014,0.14,0.096,0.123,0.18
		v0.006C39.854,27.526,39.854,27.544,39.85,27.565z M39.929,26.149c-0.006,0-0.006,0-0.012,0l-1.877-0.165
		c-0.084-0.005-0.145-0.083-0.14-0.166c0.006-0.084,0.085-0.148,0.169-0.139l1.875,0.162c0.085,0.005,0.146,0.084,0.135,0.166
		C40.079,26.091,40.013,26.149,39.929,26.149z M40.029,24.657h-1.881c-0.085,0-0.158-0.067-0.158-0.155
		c0-0.081,0.073-0.154,0.158-0.154h1.881c0.09,0,0.157,0.073,0.157,0.154C40.187,24.589,40.119,24.657,40.029,24.657z"/>
	<path fill="#232526" d="M25.731,24.112c0,1.07-0.861,1.932-1.929,1.932c-1.064,0-1.932-0.862-1.932-1.932
		c0-1.064,0.868-1.929,1.932-1.929C24.87,22.183,25.731,23.048,25.731,24.112z"/>
	<polygon fill="#232526" points="23.673,23.537 45.178,20.105 23.901,24.752 	"/>
</g>
</svg>
